<svg width="48" height="48" viewBox="0 0 48 48" fill="none" xmlns="http://www.w3.org/2000/svg">
<path d="M16.0038 18.8322C15.2227 18.0511 15.2227 16.7848 16.0038 16.0038C16.7848 15.2227 18.0511 15.2227 18.8322 16.0038L24.0113 21.183L29.1791 16.0152C29.9601 15.2341 31.2265 15.2341 32.0075 16.0152C32.7885 16.7962 32.7885 18.0626 32.0075 18.8436L26.8397 24.0114L32.0077 29.1792C32.7887 29.9604 32.7887 31.2266 32.0077 32.0078C31.2265 32.7888 29.9603 32.7888 29.1791 32.0078L24.0113 26.8398L18.8438 32.0074C18.0627 32.7884 16.7964 32.7884 16.0154 32.0074C15.2343 31.2264 15.2343 29.96 16.0154 29.179L21.1829 24.0114L16.0038 18.8322Z" fill="#0F0F0F"/>
<path fill-rule="evenodd" clip-rule="evenodd" d="M46 8C46 4.6863 43.3138 2 40 2H8C4.6863 2 2 4.6863 2 8V40C2 43.3138 4.6863 46 8 46H40C43.3138 46 46 43.3138 46 40V8ZM42 8C42 6.89544 41.1046 6 40 6H8C6.89544 6 6 6.89544 6 8V40C6 41.1046 6.89544 42 8 42H40C41.1046 42 42 41.1046 42 40V8Z" fill="#0F0F0F"/>
</svg>
