<svg width="48" height="48" viewBox="0 0 48 48" fill="none" xmlns="http://www.w3.org/2000/svg">
<path d="M42.5598 12.8001L23.4798 31.88C21.5798 33.78 15.9397 34.66 14.6797 33.4C13.4197 32.14 14.2797 26.5 16.1797 24.6L35.2798 5.50004C35.7508 4.98616 36.321 4.57308 36.9562 4.28568C37.5912 3.99828 38.278 3.84248 38.975 3.8278C39.6718 3.81314 40.3646 3.93982 41.0112 4.20024C41.6578 4.46066 42.245 4.84946 42.7372 5.34306C43.2294 5.83666 43.6166 6.42486 43.8752 7.07218C44.1338 7.71952 44.2588 8.41252 44.2422 9.10942C44.2256 9.80632 44.0678 10.4927 43.7788 11.127C43.4896 11.7613 43.075 12.3305 42.5598 12.8001Z" stroke="black" stroke-width="3" stroke-linecap="round" stroke-linejoin="round"/>
<path d="M22 8H12C9.87826 8 7.84356 8.84284 6.34326 10.3431C4.84298 11.8434 4 13.8783 4 16V36C4 38.1218 4.84298 40.1566 6.34326 41.6568C7.84356 43.1572 9.87826 44 12 44H34C38.42 44 40 40.4 40 36V26" stroke="black" stroke-width="3" stroke-linecap="round" stroke-linejoin="round"/>
</svg>
